<?xml version="1.0" standalone="no"?>
<!DOCTYPE svg PUBLIC "-//W3C//DTD SVG 20010904//EN"
 "http://www.w3.org/TR/2001/REC-SVG-20010904/DTD/svg10.dtd">
<svg version="1.0" xmlns="http://www.w3.org/2000/svg"
 width="303.000000pt" height="303.000000pt" viewBox="0 0 303.000000 303.000000"
 preserveAspectRatio="xMidYMid meet">
<metadata>
Created by potrace 1.11, written by Peter Selinger 2001-2013
</metadata>
<g transform="translate(0.000000,303.000000) scale(0.100000,-0.100000)"
fill="#000000" stroke="none">
<path d="M0 1740 c0 -710 3 -1290 8 -1290 4 0 36 5 72 10 109 17 302 21 327 7
12 -7 48 -27 80 -45 32 -18 89 -39 128 -47 38 -8 99 -30 135 -47 77 -39 203
-157 275 -257 l50 -70 211 0 212 -1 27 68 c15 37 33 74 41 83 8 9 42 22 76 29
112 22 195 72 367 222 136 118 241 328 282 564 l11 64 49 0 c58 0 83 20 119
91 13 24 29 48 37 53 17 9 43 67 43 94 0 12 -16 26 -50 42 -27 13 -47 27 -45
31 3 4 -1 10 -7 13 -10 4 -10 8 -2 11 19 9 78 69 98 99 l18 28 19 -28 19 -29
-2 45 c-2 32 1 44 10 42 6 -1 12 3 12 9 0 6 5 9 12 7 7 -3 20 2 30 11 12 10
40 15 85 16 37 0 116 1 176 3 l107 2 0 519 0 518 -207 7 c-331 10 -361 15
-420 72 -29 29 -34 39 -28 62 13 54 44 89 107 120 89 45 173 61 371 72 94 5
173 10 175 10 1 0 2 18 2 40 l0 40 -557 0 c-447 -1 -563 -3 -582 -14 -26 -15
-148 -11 -165 5 -6 5 -389 9 -868 9 l-858 0 0 -1290z m1373 1089 c-7 -7 -9
-26 -6 -46 6 -38 -6 -41 -39 -10 -24 23 -23 29 10 49 31 20 52 24 35 7z m247
-8 c6 -13 7 -28 1 -45 -7 -17 -7 -26 2 -29 7 -2 10 -7 7 -10 -3 -3 -25 11 -48
31 -40 36 -41 39 -25 55 23 23 50 22 63 -2z m71 -12 c15 -7 24 -7 35 2 11 9
14 8 14 -9 0 -11 3 -27 6 -36 3 -9 1 -16 -5 -16 -6 0 -11 7 -11 16 0 13 -6 10
-25 -10 -31 -34 -45 -26 -45 25 0 43 2 44 31 28z m-407 -32 c16 -12 16 -13 -3
-14 -11 -1 -25 5 -32 13 -15 19 9 20 35 1z m-84 -7 c0 -5 -5 -10 -11 -10 -5 0
-7 5 -4 10 3 6 8 10 11 10 2 0 4 -4 4 -10z m246 -11 c4 -7 9 -8 17 0 14 14 47
-5 47 -28 0 -24 -25 -34 -42 -18 -7 7 -21 16 -30 20 -10 3 -18 13 -18 22 0 17
16 20 26 4z m409 -5 c13 -8 38 -14 57 -12 24 2 33 -1 36 -14 2 -13 -3 -18 -19
-18 l-23 0 22 -20 c23 -22 29 -40 13 -40 -6 0 -12 4 -16 10 -3 5 -12 7 -20 3
-8 -3 -15 0 -15 6 0 6 -10 10 -22 8 -14 -1 -22 3 -20 11 1 6 -3 12 -9 12 -8 0
-7 6 2 17 10 11 10 14 2 9 -8 -4 -13 -1 -13 8 0 18 -16 21 -26 5 -6 -11 -23 6
-24 24 0 13 50 7 75 -9z m165 -74 c0 -5 7 -10 16 -10 8 0 29 -14 47 -31 29
-28 30 -31 10 -26 -17 4 -23 1 -23 -11 0 -13 -2 -13 -14 3 -8 11 -12 25 -9 32
3 7 -2 13 -11 13 -9 0 -16 4 -16 8 0 5 -10 14 -22 20 l-23 11 23 0 c12 1 22
-3 22 -9z m-30 -100 c0 -5 -4 -10 -10 -10 -5 0 -10 5 -10 10 0 6 5 10 10 10 6
0 10 -4 10 -10z m-1652 -402 c-5 -15 -23 -11 -26 6 -2 11 2 14 13 10 9 -4 14
-11 13 -16z m978 -607 c5 -5 20 -11 33 -13 14 -1 26 -9 29 -15 6 -19 -11 -16
-59 12 -24 14 -37 25 -28 25 8 0 19 -4 25 -9z m-173 -38 c4 -7 15 -9 24 -6 12
5 15 2 10 -10 -4 -10 -1 -17 6 -17 7 0 18 -13 25 -30 19 -43 63 -90 84 -90 10
0 18 -7 18 -15 0 -9 7 -18 15 -21 8 -4 15 -16 15 -28 0 -36 26 -62 86 -87 32
-12 52 -25 46 -27 -7 -2 -12 -10 -12 -17 0 -15 93 -41 155 -44 17 -1 17 -3 5
-11 -12 -8 -12 -10 -1 -10 22 0 -38 -58 -79 -76 -19 -9 -43 -20 -52 -25 -10
-5 -38 -9 -64 -9 -37 0 -47 -4 -51 -19 -3 -11 -11 -17 -18 -15 -7 3 -20 -3
-29 -12 -14 -14 -15 -19 -4 -25 11 -7 10 -11 -2 -19 -13 -9 -13 -11 0 -20 13
-9 13 -11 0 -20 -9 -6 -10 -10 -3 -10 6 0 13 -10 15 -22 2 -13 13 -27 26 -33
39 -17 20 -55 -28 -55 -23 0 -26 3 -22 33 2 24 -3 39 -22 58 -19 20 -22 29
-13 38 9 9 8 14 -3 21 -12 8 -13 13 -2 30 13 22 12 23 -12 14 -9 -4 -16 -18
-16 -34 0 -21 -6 -29 -24 -32 -14 -3 -29 -1 -34 4 -6 6 -18 -5 -31 -28 -22
-37 -20 -49 11 -56 13 -2 15 -7 8 -18 -8 -12 -13 -13 -30 -2 -16 10 -20 10
-20 0 -1 -8 -6 -5 -15 6 -12 16 -16 16 -34 4 -25 -18 -91 -12 -91 8 0 8 -4 14
-10 14 -5 0 -10 6 -10 13 0 7 -9 18 -20 25 -14 9 -19 19 -15 35 8 30 -31 70
-41 43 -3 -9 -10 -13 -15 -10 -6 3 -16 0 -24 -6 -8 -7 -22 -10 -30 -6 -11 4
-15 -1 -15 -17 0 -12 -4 -28 -9 -36 -12 -19 -51 -22 -58 -4 -3 7 -9 10 -14 7
-5 -3 -6 2 -3 10 4 11 0 16 -10 16 -9 0 -16 7 -16 17 0 9 -11 31 -25 49 -14
18 -25 42 -25 52 0 11 -5 22 -10 24 -7 2 -6 15 2 38 16 45 18 47 27 32 12 -20
61 -4 61 19 0 10 4 19 8 19 5 0 16 25 26 56 21 67 10 93 -24 56 -31 -33 -67
-28 -106 14 -19 19 -34 40 -34 46 0 5 -6 24 -14 41 -15 35 -26 77 -20 77 2 0
13 -18 25 -41 l21 -41 19 21 c15 16 17 25 9 40 -8 16 -6 21 11 26 26 9 51 -13
74 -65 12 -26 25 -40 37 -40 19 0 40 37 31 54 -3 4 4 5 16 1 18 -6 21 -2 21
27 0 18 4 40 10 48 8 12 10 12 16 -3 3 -9 10 -14 15 -11 5 3 9 0 9 -6 0 -6 4
-9 10 -5 5 3 18 0 28 -6 33 -21 65 -4 92 48 40 77 58 92 100 79 19 -6 38 -16
43 -23z m-341 -103 c-10 -17 -21 -25 -26 -20 -11 11 21 63 34 55 5 -3 1 -19
-8 -35z m538 -70 c0 -5 -4 -10 -10 -10 -5 0 -10 5 -10 10 0 6 5 10 10 10 6 0
10 -4 10 -10z m80 -71 c0 -6 9 -8 20 -4 11 4 20 2 20 -4 0 -6 9 -11 21 -11 13
0 18 -4 13 -12 -5 -7 -2 -9 8 -5 9 3 32 -3 52 -14 43 -23 46 -23 46 -4 0 10
10 15 33 14 51 -2 145 -16 115 -18 -34 -1 -37 -18 -5 -24 12 -2 -10 -5 -49 -6
-99 -2 -261 44 -294 83 -10 13 -10 16 4 16 9 0 16 -5 16 -11z m566 -24 c7 -19
14 -44 14 -55 0 -11 11 -52 25 -91 13 -40 22 -75 20 -79 -3 -5 1 -11 7 -14 21
-9 -30 -39 -73 -43 -21 -2 -49 2 -61 9 -14 8 -58 13 -112 13 -70 0 -91 3 -99
16 -14 23 0 70 23 76 11 3 20 10 20 15 0 5 4 7 9 4 5 -4 7 3 4 13 -3 13 1 21
14 25 24 8 131 116 116 116 -20 1 34 30 54 30 18 0 28 -9 39 -35z m408 -6 c17
-13 25 -27 21 -36 -3 -11 -1 -13 10 -9 19 7 19 -13 0 -40 -8 -12 -12 -24 -10
-28 3 -3 2 -4 -2 -1 -7 6 -42 -62 -43 -82 0 -9 -16 -13 -47 -13 -27 0 -43 4
-38 8 6 4 12 25 13 47 6 111 15 155 30 165 25 14 37 12 66 -11z m-589 -39
c-10 -11 -23 -20 -29 -20 -6 0 0 9 14 20 32 25 38 25 15 0z m315 -93 c20 -6
38 -16 40 -22 3 -5 19 -9 35 -7 21 2 26 0 16 -7 -11 -7 -9 -10 8 -16 13 -4 21
-9 18 -11 -7 -7 -101 29 -137 53 -39 26 -33 29 20 10z m305 -41 c-10 -14 -22
-26 -27 -26 -5 0 1 13 14 29 28 34 36 33 13 -3z m-208 -103 c12 -8 20 -19 17
-24 -3 -5 -1 -9 5 -9 5 0 12 6 14 13 3 6 5 -4 6 -23 0 -28 -2 -31 -9 -15 -7
16 -9 13 -9 -17 -1 -39 -16 -49 -39 -26 -8 8 -15 8 -27 -2 -13 -11 -15 -8 -15
18 0 19 -6 32 -17 37 -17 7 -16 8 2 15 19 8 19 9 -2 9 -22 1 -40 32 -29 50 7
11 70 -5 103 -26z m-557 -1 c0 -4 20 -18 44 -31 39 -22 43 -27 35 -48 -4 -12
-6 -30 -3 -38 4 -9 0 -15 -9 -15 -16 0 -30 -26 -22 -40 3 -5 21 -7 40 -5 19 1
42 -3 52 -11 16 -12 4 -14 -95 -12 -62 1 -115 5 -118 10 -3 4 5 8 17 8 22 0
22 0 3 18 -22 20 -31 92 -15 119 6 10 11 12 11 5 0 -20 40 9 40 30 0 10 5 18
10 18 6 0 10 -3 10 -8z m-1097 -37 c-3 -9 -8 -14 -10 -11 -3 3 -2 9 2 15 9 16
15 13 8 -4z m47 -67 c0 -20 -16 -25 -18 -5 0 6 -3 23 -7 37 -6 24 -6 24 9 6 9
-11 16 -28 16 -38z m-169 22 c-2 -8 -5 -37 -6 -65 -2 -27 -6 -58 -10 -67 -3
-9 -2 -25 3 -35 5 -10 8 -23 5 -29 -2 -5 9 -15 24 -20 21 -8 -5 -10 -108 -10
l-135 0 52 53 c28 29 68 85 89 124 33 63 40 70 63 67 18 -2 26 -8 23 -18z
m789 -55 c-7 -8 -16 -15 -21 -15 -5 0 -1 8 9 18 20 22 31 19 12 -3z m40 -55
c-24 -15 -36 -11 -14 4 10 8 21 12 24 10 2 -3 -2 -9 -10 -14z m615 -21 c-8
-12 -35 -12 -35 0 0 11 22 20 33 14 4 -2 5 -9 2 -14z m-159 -98 c13 -10 21
-21 18 -24 -8 -7 -44 4 -44 14 0 5 -6 9 -14 9 -8 0 -18 5 -21 10 -11 17 36 11
61 -9z m-1621 -17 c23 -9 0 -24 -39 -24 -24 0 -27 2 -16 15 13 16 29 19 55 9z
m1750 -14 c3 -5 -3 -10 -14 -10 -12 0 -21 5 -21 10 0 6 6 10 14 10 8 0 18 -4
21 -10z m-267 -198 c2 -7 -3 -12 -11 -12 -9 0 -18 -8 -20 -17 -3 -12 -5 -9 -6
8 0 14 2 29 6 33 9 9 26 2 31 -12z"/>
<path d="M881 1324 c0 -11 3 -14 6 -6 3 7 2 16 -1 19 -3 4 -6 -2 -5 -13z"/>
<path d="M840 1240 c0 -5 5 -10 10 -10 6 0 10 5 10 10 0 6 -4 10 -10 10 -5 0
-10 -4 -10 -10z"/>
<path d="M864 1043 c-1 -10 -4 -26 -8 -35 -7 -15 -5 -16 18 -5 26 12 35 27 16
27 -5 0 -10 7 -10 15 0 21 -16 19 -16 -2z"/>
<path d="M831 966 c-9 -10 -8 -15 4 -20 10 -4 15 1 15 14 0 24 -4 25 -19 6z"/>
<path d="M1097 844 c-8 -8 1 -24 14 -24 5 0 9 7 9 15 0 15 -12 20 -23 9z"/>
<path d="M1020 826 c0 -8 5 -18 10 -21 6 -3 10 3 10 14 0 12 -4 21 -10 21 -5
0 -10 -6 -10 -14z"/>
<path d="M2330 1139 c0 -5 5 -7 10 -4 6 3 10 8 10 11 0 2 -4 4 -10 4 -5 0 -10
-5 -10 -11z"/>
<path d="M2369 1133 c-13 -16 -12 -17 4 -4 16 13 21 21 13 21 -2 0 -10 -8 -17
-17z"/>
</g>
</svg>
